<svg width="69" height="69" viewBox="0 0 69 82" fill="none" xmlns="http://www.w3.org/2000/svg">
<path fill-rule="evenodd" clip-rule="evenodd" d="M24.3269 0C17.5194 7.8109 15.4723 13.3215 16.9846 26.4516C21.2684 27.5537 23.8377 28.6136 28.6615 31.1373L28.3077 31.7419L10.35 30.7594C9.22494 24.5425 9.87261 21.0496 12.1192 14.8129C6.78631 20.6486 5.53519 24.8416 6.63462 34.0848L28.6615 33.1779V33.7825C16.7191 35.4814 9.75688 36.3034 0 39.0728C4.14948 62.4864 9.9864 70.8512 23.1769 82C14.0739 70.4012 9.18944 63.5479 6.63462 41.4912L29.2808 34.8406L29.7231 35.6719L10.8808 43.5318C12.0069 60.3536 15.4548 66.118 22.4692 75.2737C16.6524 64.3611 15.2544 57.5825 15.3038 44.5899L30.2538 36.4277V36.9567L22.4692 41.9447V50.9382C25.8135 55.7267 28.9193 57.9121 34.4115 61.2922C40.0238 58.1338 42.0223 55.8347 45.6462 51.5429V46.7438V41.9447L38.0385 36.9567V36.4277L53.3423 44.5899C53.2394 58.3087 51.7239 64.8115 46.7962 74.5935C53.794 66.0628 56.726 60.008 57.7654 43.8341L38.8346 35.6719L39.1885 34.8406L61.8346 41.4912C60.5641 58.9763 57.0797 67.5256 45.5577 81.895C53.417 82.8628 68.2455 55.3039 69 38.8167C58.1739 35.9277 51.3471 35.5344 39.8962 33.7825V33.1779L61.8346 34.2359C63.1286 24.0261 61.7412 19.9658 56.6154 14.8129C58.69 21.1093 59.3648 24.6164 58.2077 30.7594L39.8962 31.7419L39.1885 31.1373C43.8665 29.17 46.4233 27.9852 51.5731 26.6028C53.5882 13.0897 51.1244 7.89716 44.6731 0C47.8829 9.0452 49.0476 14.2594 47.6808 24.3355L38.4808 29.9281L38.0385 29.1724L40.5154 27.4341C39.5929 25.8604 38.515 25.0852 36.4462 23.7309L37.5962 26.6028L36.4462 27.8876H32.6423L31.2269 26.6028C31.0483 25.6494 31.5221 24.9829 32.6423 23.7309C30.2076 24.578 29.0682 25.5318 27.9538 26.8673L30.6962 29.1724L29.9 29.7014L20.7885 24.3355C19.7542 14.7417 20.6508 9.41837 24.3269 0ZM34.0671 54.3392C40.5248 51.6184 41.7444 48.0664 40.5154 42.3982L38.0385 39.0728L43.7885 42.3982L42.9923 49.8802L41.4 51.9207L39.4538 54.3392L34.4115 57.3622L28.6615 54.1124L25.1231 49.8802L24.3269 42.3982L29.7231 38.8167L26.9808 42.3982C26.1846 49.8802 28.5513 51.9416 34.0671 54.3392Z" fill="#FCFAFA"/> 
</svg>

