<svg width="71" height="84" viewBox="0 0 71 84" fill="none" xmlns="http://www.w3.org/2000/svg">
<path fill-rule="evenodd" clip-rule="evenodd" d="M25.3269 1C18.5194 8.8109 16.4723 14.3215 17.9846 27.4516C22.2684 28.5537 24.8377 29.6136 29.6615 32.1373L29.3077 32.7419L11.35 31.7594C10.2249 25.5425 10.8726 22.0496 13.1192 15.8129C7.78631 21.6486 6.53519 25.8416 7.63462 35.0848L29.6615 34.1779V34.7825C17.7191 36.4814 10.7569 37.3034 1 40.0728C5.14948 63.4864 10.9864 71.8512 24.1769 83C15.0739 71.4012 10.1894 64.5479 7.63462 42.4912L30.2808 35.8406L30.7231 36.6719L11.8808 44.5318C13.0069 61.3536 16.4548 67.118 23.4692 76.2737C17.6524 65.3611 16.2544 58.5825 16.3038 45.5899L31.2538 37.4277V37.9567L23.4692 42.9447V51.9382C26.8135 56.7267 29.9193 58.9121 35.4115 62.2922C41.0238 59.1338 43.0223 56.8347 46.6462 52.5429V47.7438V42.9447L39.0385 37.9567V37.4277L54.3423 45.5899C54.2394 59.3087 52.7239 65.8115 47.7962 75.5935C54.794 67.0628 57.726 61.008 58.7654 44.8341L39.8346 36.6719L40.1885 35.8406L62.8346 42.4912C61.5641 59.9763 58.0797 68.5256 46.5577 82.895C54.417 83.8628 69.2455 56.3039 70 39.8167C59.1739 36.9277 52.3471 36.5344 40.8962 34.7825V34.1779L62.8346 35.2359C64.1286 25.0261 62.7412 20.9658 57.6154 15.8129C59.69 22.1093 60.3648 25.6164 59.2077 31.7594L40.8962 32.7419L40.1885 32.1373C44.8665 30.17 47.4233 28.9852 52.5731 27.6028C54.5882 14.0897 52.1244 8.89716 45.6731 1C48.8829 10.0452 50.0476 15.2594 48.6808 25.3355L39.4808 30.9281L39.0385 30.1724L41.5154 28.4341C40.5929 26.8604 39.515 26.0852 37.4462 24.7309L38.5962 27.6028L37.4462 28.8876H33.6423L32.2269 27.6028C32.0483 26.6494 32.5221 25.9829 33.6423 24.7309C31.2076 25.578 30.0682 26.5318 28.9538 27.8673L31.6962 30.1724L30.9 30.7014L21.7885 25.3355C20.7542 15.7417 21.6508 10.4184 25.3269 1ZM35.0671 55.3392C41.5248 52.6184 42.7444 49.0664 41.5154 43.3982L39.0385 40.0728L44.7885 43.3982L43.9923 50.8802L42.4 52.9207L40.4538 55.3392L35.4115 58.3622L29.6615 55.1124L26.1231 50.8802L25.3269 43.3982L30.7231 39.8167L27.9808 43.3982C27.1846 50.8802 29.5513 52.9416 35.0671 55.3392Z" fill="#FCFAFA" stroke="white"/>
</svg>
