<svg width="58" height="25" viewBox="0 0 58 25" fill="none" xmlns="http://www.w3.org/2000/svg">
<rect width="58" height="24.0415" fill="#EC111A"/>
<path d="M1.95349 2.40417V21.6373H5.40945L5.55971 13.0726L7.0623 21.6373H9.01567L10.5183 13.0726V21.6373H17.1297L17.5804 18.7824H20.2851L20.7359 21.6373H27.4975V15.4767H28.2488L29.7514 21.6373H33.2074L31.1038 14.4249C32.288 13.2354 32.8474 12.4377 33.2074 10.2176L35.1607 21.6373H39.368L42.0727 4.65806V21.6373H48.6841V18.1814H45.5286V13.8239H48.6841V10.2176H45.5286V6.01039H48.6841V2.40417H38.9172L37.2644 14.7254L35.912 2.40417H32.0053L32.3058 5.2591C31.7048 3.75651 29.7514 2.40417 28.5493 2.40417H23.8913V19.2332L21.4872 2.40417H16.6789L14.1245 19.8342V2.40417H9.6167L7.96385 11.8705L6.311 2.40417H1.95349Z" fill="white"/>
<path d="M49.2851 21.6373V2.40417H52.7411V18.3316H55.7462V21.6373H49.2851Z" fill="white"/>
<path d="M19.0831 7.66315L18.0312 15.3264H20.1349L19.0831 7.66315Z" fill="#EC111A"/>
<path d="M27.4976 11.7201V5.70978C28.8815 6.14672 29.7515 6.91185 29.7515 8.86522C29.7515 10.2175 28.9046 11.5298 27.4976 11.7201Z" fill="#EC111A"/>
</svg>
